<svg xmlns="http://www.w3.org/2000/svg" xmlns:xlink="http://www.w3.org/1999/xlink" viewBox="-398.6 401.4 101.2 101.2" enable-background="new -398.6 401.4 101.2 101.2"><style type="text/css">.st0{fill:gray;} .st1{clip-path:url(#SVGID_2_);} .st2{clip-path:url(#SVGID_4_);fill:#F2F2F2;}</style><path d="M-348 402c-27.6 0-50 22.4-50 50s22.4 50 50 50 50-22.4 50-50-22.4-50-50-50z" class="st0"/><defs><path id="SVGID_1_" d="M-398.6 401.4h101.2v101.2h-101.2z"/></defs><clipPath id="SVGID_2_"><use xlink:href="#SVGID_1_" overflow="visible"/></clipPath><g class="st1"><defs><path id="SVGID_3_" d="M-398.6 401.4h101.2v101.2h-101.2z"/></defs><clipPath id="SVGID_4_"><use xlink:href="#SVGID_3_" overflow="visible"/></clipPath><path d="M-347.8 414.3c-20.9 0-37.9 17-37.9 37.9s17 37.9 37.9 37.9 37.9-17 37.9-37.9c.1-20.9-16.9-37.9-37.9-37.9m-34.1 37.9c0-4.9 1.1-9.6 3-13.9l16.3 44.6c-11.4-5.5-19.3-17.2-19.3-30.7m34.1 34.2c-3.3 0-6.6-.5-9.6-1.4l10.2-29.7 10.5 28.7c.1.2.2.3.2.5-3.5 1.2-7.3 1.9-11.3 1.9m4.7-50.1c2.1-.1 3.9-.3 3.9-.3 1.8-.2 1.6-2.9-.2-2.8 0 0-5.5.4-9.1.4-3.4 0-9-.4-9-.4-1.8-.1-2.1 2.7-.2 2.8 0 0 1.7.2 3.6.3l5.3 14.6-7.5 22.4-12.4-36.9c2.1-.1 3.9-.3 3.9-.3 1.8-.2 1.6-2.9-.2-2.8 0 0-5.5.4-9.1.4-.6 0-1.4 0-2.2 0 6.1-9.3 16.6-15.4 28.5-15.4 8.9 0 17 3.4 23 9-.1 0-.3 0-.4 0-3.4 0-5.7 2.9-5.7 6.1 0 2.8 1.6 5.2 3.4 8 1.3 2.3 2.8 5.2 2.8 9.4 0 2.9-1.1 6.3-2.6 11l-3.4 11.4-12.4-36.9zm25.3-.4c2.7 4.9 4.2 10.4 4.2 16.4 0 12.6-6.8 23.6-17 29.5l10.4-30.1c1.9-4.9 2.6-8.8 2.6-12.2 0-1.4-.1-2.5-.2-3.6" class="st2"/></g></svg>